{
	"asset":{
		"generator":"Khronos glTF Blender I/O v4.4.56",
		"version":"2.0"
	},
	"scene":0,
	"scenes":[
		{
			"name":"Scene",
			"nodes":[
				0,
				1,
				2,
				3,
				4,
				5,
				6,
				7,
				8,
				9,
				10,
				11
			]
		}
	],
	"nodes":[
		{
			"mesh":0,
			"name":"Cylinder.017",
			"translation":[
				1.0951099395751953,
				2.0111637115478516,
				-2.4110656795528485e-06
			]
		},
		{
			"mesh":1,
			"name":"Cylinder.018",
			"translation":[
				-12.079184532165527,
				8.043121337890625,
				0
			]
		},
		{
			"mesh":2,
			"name":"Cylinder.019",
			"rotation":[
				0,
				0,
				1,
				7.549790126404332e-08
			],
			"translation":[
				-1.0240325927734375,
				18.323945999145508,
				0
			]
		},
		{
			"mesh":3,
			"name":"Cylinder.020",
			"translation":[
				-18.278141021728516,
				0.8475661277770996,
				0
			]
		},
		{
			"mesh":4,
			"name":"Cylinder.021",
			"translation":[
				-18.190330505371094,
				10.733341217041016,
				-6.846243381500244
			]
		},
		{
			"mesh":5,
			"name":"Cylinder.022",
			"translation":[
				19.07195281982422,
				12.642839431762695,
				0
			]
		},
		{
			"mesh":6,
			"name":"Cylinder.057",
			"translation":[
				7.558346748352051,
				10.39430046081543,
				0
			]
		},
		{
			"mesh":7,
			"name":"Cylinder.058",
			"translation":[
				9.96401309967041,
				1.6981403827667236,
				0
			]
		},
		{
			"mesh":8,
			"name":"Cylinder.060",
			"rotation":[
				0,
				-0.7071068286895752,
				0,
				0.7071068286895752
			],
			"translation":[
				-4.388715744018555,
				7.95306921005249,
				0
			]
		},
		{
			"mesh":9,
			"name":"Cylinder.061",
			"rotation":[
				0,
				0,
				-0.7071068286895752,
				0.7071068286895752
			],
			"translation":[
				-14.604940414428711,
				2.513735771179199,
				-0.16558054089546204
			]
		},
		{
			"mesh":10,
			"name":"Cylinder.068",
			"translation":[
				17.774307250976562,
				1.9988491535186768,
				0
			]
		},
		{
			"mesh":11,
			"name":"Cylinder.069",
			"translation":[
				12.922335624694824,
				9.061429977416992,
				0
			]
		}
	],
	"materials":[
		{
			"doubleSided":true,
			"name":"Tuberia",
			"normalTexture":{
				"index":0
			},
			"pbrMetallicRoughness":{
				"baseColorTexture":{
					"index":1
				},
				"metallicRoughnessTexture":{
					"index":2
				}
			}
		}
	],
	"meshes":[
		{
			"name":"Cylinder.026",
			"primitives":[
				{
					"attributes":{
						"POSITION":0,
						"NORMAL":1,
						"TEXCOORD_0":2
					},
					"indices":3,
					"material":0
				}
			]
		},
		{
			"name":"Cylinder.027",
			"primitives":[
				{
					"attributes":{
						"POSITION":4,
						"NORMAL":5,
						"TEXCOORD_0":6
					},
					"indices":7,
					"material":0
				}
			]
		},
		{
			"name":"Cylinder.028",
			"primitives":[
				{
					"attributes":{
						"POSITION":8,
						"NORMAL":9,
						"TEXCOORD_0":10
					},
					"indices":11,
					"material":0
				}
			]
		},
		{
			"name":"Cylinder.029",
			"primitives":[
				{
					"attributes":{
						"POSITION":12,
						"NORMAL":13,
						"TEXCOORD_0":14
					},
					"indices":15,
					"material":0
				}
			]
		},
		{
			"name":"Cylinder.030",
			"primitives":[
				{
					"attributes":{
						"POSITION":16,
						"NORMAL":17,
						"TEXCOORD_0":18
					},
					"indices":19,
					"material":0
				}
			]
		},
		{
			"name":"Cylinder.059",
			"primitives":[
				{
					"attributes":{
						"POSITION":20,
						"NORMAL":21,
						"TEXCOORD_0":22
					},
					"indices":23,
					"material":0
				}
			]
		},
		{
			"name":"Cylinder.058",
			"primitives":[
				{
					"attributes":{
						"POSITION":24,
						"NORMAL":25,
						"TEXCOORD_0":26
					},
					"indices":27,
					"material":0
				}
			]
		},
		{
			"name":"Cylinder.060",
			"primitives":[
				{
					"attributes":{
						"POSITION":28,
						"NORMAL":29,
						"TEXCOORD_0":30
					},
					"indices":31,
					"material":0
				}
			]
		},
		{
			"name":"Cylinder.065",
			"primitives":[
				{
					"attributes":{
						"POSITION":32,
						"NORMAL":33,
						"TEXCOORD_0":34
					},
					"indices":35,
					"material":0
				}
			]
		},
		{
			"name":"Cylinder.068",
			"primitives":[
				{
					"attributes":{
						"POSITION":36,
						"NORMAL":37,
						"TEXCOORD_0":38
					},
					"indices":39,
					"material":0
				}
			]
		},
		{
			"name":"Cylinder.061",
			"primitives":[
				{
					"attributes":{
						"POSITION":40,
						"NORMAL":41,
						"TEXCOORD_0":42
					},
					"indices":43,
					"material":0
				}
			]
		},
		{
			"name":"Cylinder.057",
			"primitives":[
				{
					"attributes":{
						"POSITION":44,
						"NORMAL":45,
						"TEXCOORD_0":46
					},
					"indices":47,
					"material":0
				}
			]
		}
	],
	"textures":[
		{
			"sampler":0,
			"source":0
		},
		{
			"sampler":0,
			"source":1
		},
		{
			"sampler":0,
			"source":2
		}
	],
	"images":[
		{
			"mimeType":"image/png",
			"name":"P_Pipes_1_n",
			"uri":"P_Pipes_1_n.png"
		},
		{
			"mimeType":"image/png",
			"name":"P_Pipes_1_bc",
			"uri":"P_Pipes_1_bc.png"
		},
		{
			"mimeType":"image/png",
			"name":"P_Pipes_1_m-P_Pipes_1_r",
			"uri":"P_Pipes_1_m-P_Pipes_1_r.png"
		}
	],
	"accessors":[
		{
			"bufferView":0,
			"componentType":5126,
			"count":236,
			"max":[
				2.5088014602661133,
				8.308412551879883,
				2.560504674911499
			],
			"min":[
				-2.361567974090576,
				-6.160499469842762e-05,
				-2.560504674911499
			],
			"type":"VEC3"
		},
		{
			"bufferView":1,
			"componentType":5126,
			"count":236,
			"type":"VEC3"
		},
		{
			"bufferView":2,
			"componentType":5126,
			"count":236,
			"type":"VEC2"
		},
		{
			"bufferView":3,
			"componentType":5123,
			"count":1032,
			"type":"SCALAR"
		},
		{
			"bufferView":4,
			"componentType":5126,
			"count":300,
			"max":[
				6.016860485076904,
				8.52121353149414,
				2.560504674911499
			],
			"min":[
				-2.476789951324463,
				0.02756381779909134,
				-2.560504674911499
			],
			"type":"VEC3"
		},
		{
			"bufferView":5,
			"componentType":5126,
			"count":300,
			"type":"VEC3"
		},
		{
			"bufferView":6,
			"componentType":5126,
			"count":300,
			"type":"VEC2"
		},
		{
			"bufferView":7,
			"componentType":5123,
			"count":1248,
			"type":"SCALAR"
		},
		{
			"bufferView":8,
			"componentType":5126,
			"count":353,
			"max":[
				4.157717704772949,
				6.622737407684326,
				2.560504674911499
			],
			"min":[
				-4.157715320587158,
				0.033322516828775406,
				-2.560504674911499
			],
			"type":"VEC3"
		},
		{
			"bufferView":9,
			"componentType":5126,
			"count":353,
			"type":"VEC3"
		},
		{
			"bufferView":10,
			"componentType":5126,
			"count":353,
			"type":"VEC2"
		},
		{
			"bufferView":11,
			"componentType":5123,
			"count":1548,
			"type":"SCALAR"
		},
		{
			"bufferView":12,
			"componentType":5126,
			"count":520,
			"max":[
				2.506251096725464,
				8.318130493164062,
				2.8785855770111084
			],
			"min":[
				-2.364119052886963,
				0.009656249545514584,
				-2.560504674911499
			],
			"type":"VEC3"
		},
		{
			"bufferView":13,
			"componentType":5126,
			"count":520,
			"type":"VEC3"
		},
		{
			"bufferView":14,
			"componentType":5126,
			"count":520,
			"type":"VEC2"
		},
		{
			"bufferView":15,
			"componentType":5123,
			"count":2100,
			"type":"SCALAR"
		},
		{
			"bufferView":16,
			"componentType":5126,
			"count":470,
			"max":[
				4.1501264572143555,
				8.310661315917969,
				2.5631086826324463
			],
			"min":[
				-4.150125980377197,
				0.0022048931568861008,
				-2.557900905609131
			],
			"type":"VEC3"
		},
		{
			"bufferView":17,
			"componentType":5126,
			"count":470,
			"type":"VEC3"
		},
		{
			"bufferView":18,
			"componentType":5126,
			"count":470,
			"type":"VEC2"
		},
		{
			"bufferView":19,
			"componentType":5123,
			"count":2064,
			"type":"SCALAR"
		},
		{
			"bufferView":20,
			"componentType":5126,
			"count":517,
			"max":[
				4.134438991546631,
				5.2770514488220215,
				1.1716729402542114
			],
			"min":[
				-4.134439945220947,
				0.009227275848388672,
				-1.1716715097427368
			],
			"type":"VEC3"
		},
		{
			"bufferView":21,
			"componentType":5126,
			"count":517,
			"type":"VEC3"
		},
		{
			"bufferView":22,
			"componentType":5126,
			"count":517,
			"type":"VEC2"
		},
		{
			"bufferView":23,
			"componentType":5123,
			"count":2208,
			"type":"SCALAR"
		},
		{
			"bufferView":24,
			"componentType":5126,
			"count":390,
			"max":[
				5.970606327056885,
				7.287951469421387,
				1.171671986579895
			],
			"min":[
				-1.1361510753631592,
				0.019772469997406006,
				-1.1716724634170532
			],
			"type":"VEC3"
		},
		{
			"bufferView":25,
			"componentType":5126,
			"count":390,
			"type":"VEC3"
		},
		{
			"bufferView":26,
			"componentType":5126,
			"count":390,
			"type":"VEC2"
		},
		{
			"bufferView":27,
			"componentType":5123,
			"count":1608,
			"type":"SCALAR"
		},
		{
			"bufferView":28,
			"componentType":5126,
			"count":769,
			"max":[
				4.1403045654296875,
				8.289981842041016,
				0.2442750483751297
			],
			"min":[
				-4.1403045654296875,
				0.03167390823364258,
				-2.099069356918335
			],
			"type":"VEC3"
		},
		{
			"bufferView":29,
			"componentType":5126,
			"count":769,
			"type":"VEC3"
		},
		{
			"bufferView":30,
			"componentType":5126,
			"count":769,
			"type":"VEC2"
		},
		{
			"bufferView":31,
			"componentType":5123,
			"count":2952,
			"type":"SCALAR"
		},
		{
			"bufferView":32,
			"componentType":5126,
			"count":79,
			"max":[
				0.5337681770324707,
				2.8037590980529785,
				2.5557823181152344
			],
			"min":[
				0.018654853105545044,
				-2.066610336303711,
				-2.5652270317077637
			],
			"type":"VEC3"
		},
		{
			"bufferView":33,
			"componentType":5126,
			"count":79,
			"type":"VEC3"
		},
		{
			"bufferView":34,
			"componentType":5126,
			"count":79,
			"type":"VEC2"
		},
		{
			"bufferView":35,
			"componentType":5123,
			"count":210,
			"type":"SCALAR"
		},
		{
			"bufferView":36,
			"componentType":5126,
			"count":292,
			"max":[
				2.437390089035034,
				6.659820079803467,
				2.5649330615997314
			],
			"min":[
				-4.155770778656006,
				0.07315260171890259,
				-2.556077003479004
			],
			"type":"VEC3"
		},
		{
			"bufferView":37,
			"componentType":5126,
			"count":292,
			"type":"VEC3"
		},
		{
			"bufferView":38,
			"componentType":5126,
			"count":292,
			"type":"VEC2"
		},
		{
			"bufferView":39,
			"componentType":5123,
			"count":1248,
			"type":"SCALAR"
		},
		{
			"bufferView":40,
			"componentType":5126,
			"count":387,
			"max":[
				1.1138701438903809,
				8.31597900390625,
				0.2491045892238617
			],
			"min":[
				-1.1138701438903809,
				0.02844715118408203,
				-2.0942397117614746
			],
			"type":"VEC3"
		},
		{
			"bufferView":41,
			"componentType":5126,
			"count":387,
			"type":"VEC3"
		},
		{
			"bufferView":42,
			"componentType":5126,
			"count":387,
			"type":"VEC2"
		},
		{
			"bufferView":43,
			"componentType":5123,
			"count":1488,
			"type":"SCALAR"
		},
		{
			"bufferView":44,
			"componentType":5126,
			"count":390,
			"max":[
				4.231441497802734,
				5.128135681152344,
				1.1716727018356323
			],
			"min":[
				-0.9900240898132324,
				0.013398885726928711,
				-1.171671748161316
			],
			"type":"VEC3"
		},
		{
			"bufferView":45,
			"componentType":5126,
			"count":390,
			"type":"VEC3"
		},
		{
			"bufferView":46,
			"componentType":5126,
			"count":390,
			"type":"VEC2"
		},
		{
			"bufferView":47,
			"componentType":5123,
			"count":1608,
			"type":"SCALAR"
		}
	],
	"bufferViews":[
		{
			"buffer":0,
			"byteLength":2832,
			"byteOffset":0,
			"target":34962
		},
		{
			"buffer":0,
			"byteLength":2832,
			"byteOffset":2832,
			"target":34962
		},
		{
			"buffer":0,
			"byteLength":1888,
			"byteOffset":5664,
			"target":34962
		},
		{
			"buffer":0,
			"byteLength":2064,
			"byteOffset":7552,
			"target":34963
		},
		{
			"buffer":0,
			"byteLength":3600,
			"byteOffset":9616,
			"target":34962
		},
		{
			"buffer":0,
			"byteLength":3600,
			"byteOffset":13216,
			"target":34962
		},
		{
			"buffer":0,
			"byteLength":2400,
			"byteOffset":16816,
			"target":34962
		},
		{
			"buffer":0,
			"byteLength":2496,
			"byteOffset":19216,
			"target":34963
		},
		{
			"buffer":0,
			"byteLength":4236,
			"byteOffset":21712,
			"target":34962
		},
		{
			"buffer":0,
			"byteLength":4236,
			"byteOffset":25948,
			"target":34962
		},
		{
			"buffer":0,
			"byteLength":2824,
			"byteOffset":30184,
			"target":34962
		},
		{
			"buffer":0,
			"byteLength":3096,
			"byteOffset":33008,
			"target":34963
		},
		{
			"buffer":0,
			"byteLength":6240,
			"byteOffset":36104,
			"target":34962
		},
		{
			"buffer":0,
			"byteLength":6240,
			"byteOffset":42344,
			"target":34962
		},
		{
			"buffer":0,
			"byteLength":4160,
			"byteOffset":48584,
			"target":34962
		},
		{
			"buffer":0,
			"byteLength":4200,
			"byteOffset":52744,
			"target":34963
		},
		{
			"buffer":0,
			"byteLength":5640,
			"byteOffset":56944,
			"target":34962
		},
		{
			"buffer":0,
			"byteLength":5640,
			"byteOffset":62584,
			"target":34962
		},
		{
			"buffer":0,
			"byteLength":3760,
			"byteOffset":68224,
			"target":34962
		},
		{
			"buffer":0,
			"byteLength":4128,
			"byteOffset":71984,
			"target":34963
		},
		{
			"buffer":0,
			"byteLength":6204,
			"byteOffset":76112,
			"target":34962
		},
		{
			"buffer":0,
			"byteLength":6204,
			"byteOffset":82316,
			"target":34962
		},
		{
			"buffer":0,
			"byteLength":4136,
			"byteOffset":88520,
			"target":34962
		},
		{
			"buffer":0,
			"byteLength":4416,
			"byteOffset":92656,
			"target":34963
		},
		{
			"buffer":0,
			"byteLength":4680,
			"byteOffset":97072,
			"target":34962
		},
		{
			"buffer":0,
			"byteLength":4680,
			"byteOffset":101752,
			"target":34962
		},
		{
			"buffer":0,
			"byteLength":3120,
			"byteOffset":106432,
			"target":34962
		},
		{
			"buffer":0,
			"byteLength":3216,
			"byteOffset":109552,
			"target":34963
		},
		{
			"buffer":0,
			"byteLength":9228,
			"byteOffset":112768,
			"target":34962
		},
		{
			"buffer":0,
			"byteLength":9228,
			"byteOffset":121996,
			"target":34962
		},
		{
			"buffer":0,
			"byteLength":6152,
			"byteOffset":131224,
			"target":34962
		},
		{
			"buffer":0,
			"byteLength":5904,
			"byteOffset":137376,
			"target":34963
		},
		{
			"buffer":0,
			"byteLength":948,
			"byteOffset":143280,
			"target":34962
		},
		{
			"buffer":0,
			"byteLength":948,
			"byteOffset":144228,
			"target":34962
		},
		{
			"buffer":0,
			"byteLength":632,
			"byteOffset":145176,
			"target":34962
		},
		{
			"buffer":0,
			"byteLength":420,
			"byteOffset":145808,
			"target":34963
		},
		{
			"buffer":0,
			"byteLength":3504,
			"byteOffset":146228,
			"target":34962
		},
		{
			"buffer":0,
			"byteLength":3504,
			"byteOffset":149732,
			"target":34962
		},
		{
			"buffer":0,
			"byteLength":2336,
			"byteOffset":153236,
			"target":34962
		},
		{
			"buffer":0,
			"byteLength":2496,
			"byteOffset":155572,
			"target":34963
		},
		{
			"buffer":0,
			"byteLength":4644,
			"byteOffset":158068,
			"target":34962
		},
		{
			"buffer":0,
			"byteLength":4644,
			"byteOffset":162712,
			"target":34962
		},
		{
			"buffer":0,
			"byteLength":3096,
			"byteOffset":167356,
			"target":34962
		},
		{
			"buffer":0,
			"byteLength":2976,
			"byteOffset":170452,
			"target":34963
		},
		{
			"buffer":0,
			"byteLength":4680,
			"byteOffset":173428,
			"target":34962
		},
		{
			"buffer":0,
			"byteLength":4680,
			"byteOffset":178108,
			"target":34962
		},
		{
			"buffer":0,
			"byteLength":3120,
			"byteOffset":182788,
			"target":34962
		},
		{
			"buffer":0,
			"byteLength":3216,
			"byteOffset":185908,
			"target":34963
		}
	],
	"samplers":[
		{
			"magFilter":9729,
			"minFilter":9987
		}
	],
	"buffers":[
		{
			"byteLength":189124,
			"uri":"P_Pipes_1.bin"
		}
	]
}
